<svg xmlns="http://www.w3.org/2000/svg" xmlns:xlink="http://www.w3.org/1999/xlink" version="1.1" baseProfile="tiny" x="0px" y="0px" viewBox="0 0 24 30" overflow="scroll" xml:space="preserve"><path d="M14.1123047,14.5H9.8876953C9.1313477,14.5,2.5,14.6054688,2.5,18.25v5.25h19v-5.25  C21.5,14.6054688,14.8686523,14.5,14.1123047,14.5z M20,22H4v-3.75c0-1.6958008,3.9667969-2.2480469,5.8876953-2.25h4.2246094  C16.0332031,16,20,16.5498047,20,18.25V22z"/><path d="M12,13c2.9685059,0,5.375-2.4064941,5.375-5.375c0-2.9685669-2.4064941-5.375-5.375-5.375S6.625,4.6564331,6.625,7.625  C6.625,10.5935059,9.0314941,13,12,13z M12,3.75c2.1366577,0,3.875,1.7382813,3.875,3.875c0,2.1366577-1.7383423,3.875-3.875,3.875  S8.125,9.7616577,8.125,7.625C8.125,5.4882813,9.8633423,3.75,12,3.75z"/><text x="0" y="39" fill="#000000" font-size="5px" font-weight="bold" font-family="'Helvetica Neue', Helvetica, Arial-Unicode, Arial, Sans-serif">Created by Strongicon</text><text x="0" y="44" fill="#000000" font-size="5px" font-weight="bold" font-family="'Helvetica Neue', Helvetica, Arial-Unicode, Arial, Sans-serif">from the Noun Project</text></svg>