<svg width="45" height="36" viewBox="0 0 45 36" fill="none" xmlns="http://www.w3.org/2000/svg">
<path d="M15.1713 8.69338L6.20158 17.6643L15.1713 26.6315C16.1732 27.6347 16.1732 29.2621 15.1713 30.264C14.6677 30.7676 14.0139 31.0168 13.355 31.0168C12.696 31.0168 12.0422 30.7676 11.5387 30.264L0.752719 19.4793C0.27103 18.9989 0 18.3451 0 17.6643C0 16.9848 0.27103 16.3297 0.752719 15.8481L11.5387 5.0608C12.5419 4.05889 14.1681 4.05889 15.1713 5.0608C16.1732 6.064 16.1732 7.68761 15.1713 8.69338ZM44.2473 15.8468L33.4626 5.05952C32.4594 4.0576 30.8332 4.0576 29.83 5.05952C28.8268 6.06271 28.8268 7.68889 29.83 8.69209L38.7984 17.6631L29.83 26.6315C28.8268 27.6347 28.8268 29.2621 29.83 30.264C30.3335 30.7676 30.9886 31.0168 31.6463 31.0168C32.304 31.0168 32.9604 30.7676 33.4626 30.264L44.2473 19.4793C44.729 18.9977 45 18.3438 45 17.6631C45 16.9848 44.729 16.3285 44.2473 15.8468ZM26.99 0.0820669C25.6079 -0.27374 24.2142 0.561186 23.8622 1.93304L16.1552 32.1163C15.8058 33.4907 16.6343 34.8908 18.0074 35.2428C18.222 35.298 18.4365 35.3237 18.6458 35.3237C19.7942 35.3237 20.8372 34.5491 21.1339 33.3905L28.8409 3.20726C29.1929 1.83156 28.3631 0.432736 26.99 0.0820669Z" fill="#E8E8E8"/>
</svg>
