<svg xmlns="http://www.w3.org/2000/svg" xmlns:xlink="http://www.w3.org/1999/xlink" viewBox="0 0 100 125" version="1.1" x="0px" y="0px"><title>3</title><desc>Created with Sketch.</desc><g stroke="none" stroke-width="1" fill="none" fill-rule="evenodd"><g fill="#000000"><path d="M95.8990039,82.0745286 L3.90623047,82.0745286 L3.90623047,20.0662452 L45.5115039,53.7938311 C46.7554492,54.8024196 48.279668,55.3064196 49.804668,55.3064196 C51.329082,55.3064196 52.854082,54.8020272 54.097832,53.7938311 L95.8991992,19.9073351 L95.901543,82.0745286 C95.901543,82.0745286 95.9007617,82.0745286 95.8990039,82.0745286 L95.8990039,82.0745286 Z M92.126543,17.9237057 L51.6445117,50.7405995 C50.5783008,51.6049918 49.0308398,51.6045995 47.9646289,50.7405995 L7.48298828,17.9237057 L92.126543,17.9237057 Z M98.379668,14.8951935 C98.3200977,14.8445777 98.2583789,14.7980817 98.1943164,14.7557057 C97.5490039,14.282703 96.757207,14 95.8990039,14 L3.90623047,14 C2.93552734,14 2.04841797,14.3596076 1.36462891,14.9503215 C1.30486328,14.9987793 1.24724609,15.0511608 1.19255859,15.1076621 C0.458574219,15.821188 -1.953125e-05,16.8189864 -1.953125e-05,17.9237057 L-1.953125e-05,82.0745286 C-1.953125e-05,84.2380599 1.75232422,85.9982343 3.90623047,85.9982343 L95.8990039,85.9982343 C98.0529102,85.9982343 99.8052539,84.2380599 99.8052539,82.0745286 L99.8052539,17.9237057 C99.8052539,16.7053951 99.2495898,15.6153896 98.379668,14.8951935 L98.379668,14.8951935 Z"/></g></g><text x="0" y="115" fill="#000000" font-size="5px" font-weight="bold" font-family="'Helvetica Neue', Helvetica, Arial-Unicode, Arial, Sans-serif">Created by AomAm</text><text x="0" y="120" fill="#000000" font-size="5px" font-weight="bold" font-family="'Helvetica Neue', Helvetica, Arial-Unicode, Arial, Sans-serif">from the Noun Project</text></svg>