<svg id="visual" viewBox="0 0 1440 1024" width="1440" height="1024" xmlns="http://www.w3.org/2000/svg" xmlns:xlink="http://www.w3.org/1999/xlink" version="1.1"><rect x="0" y="0" width="1440" height="1024" fill="#404E5C"></rect><path d="M0 604L206 703L411 735L617 607L823 651L1029 721L1234 654L1440 733L1440 1025L1234 1025L1029 1025L823 1025L617 1025L411 1025L206 1025L0 1025Z" fill="#bfbfbf"></path><path d="M0 742L206 745L411 724L617 734L823 754L1029 660L1234 786L1440 661L1440 1025L1234 1025L1029 1025L823 1025L617 1025L411 1025L206 1025L0 1025Z" fill="#acafb2"></path><path d="M0 764L206 765L411 715L617 813L823 776L1029 741L1234 808L1440 725L1440 1025L1234 1025L1029 1025L823 1025L617 1025L411 1025L206 1025L0 1025Z" fill="#999fa5"></path><path d="M0 789L206 825L411 794L617 809L823 760L1029 858L1234 832L1440 789L1440 1025L1234 1025L1029 1025L823 1025L617 1025L411 1025L206 1025L0 1025Z" fill="#868f98"></path><path d="M0 882L206 863L411 817L617 890L823 818L1029 876L1234 886L1440 896L1440 1025L1234 1025L1029 1025L823 1025L617 1025L411 1025L206 1025L0 1025Z" fill="#74808b"></path><path d="M0 892L206 950L411 880L617 872L823 878L1029 922L1234 918L1440 945L1440 1025L1234 1025L1029 1025L823 1025L617 1025L411 1025L206 1025L0 1025Z" fill="#61717e"></path><path d="M0 929L206 928L411 932L617 962L823 937L1029 973L1234 986L1440 937L1440 1025L1234 1025L1029 1025L823 1025L617 1025L411 1025L206 1025L0 1025Z" fill="#4f6272"></path></svg>