<svg xmlns="http://www.w3.org/2000/svg" viewBox="0 0 25 31.25" x="0px" y="0px"><g><path d="M18.3,10.73h-.992V7.28a4.811,4.811,0,0,0-9.622,0v3.45H6.7a2,2,0,0,0-2,2v7.8a2,2,0,0,0,2,2H18.3a2,2,0,0,0,2-2v-7.8A2,2,0,0,0,18.3,10.73ZM8.689,7.28a3.811,3.811,0,0,1,7.622,0v3.45H8.689ZM19.3,20.531a1,1,0,0,1-1,1H6.7a1,1,0,0,1-1-1v-7.8a1,1,0,0,1,1-1H18.3a1,1,0,0,1,1,1ZM13.5,15.4a.986.986,0,0,1-.5.847v1.9a.5.5,0,0,1-1,0v-1.9a.986.986,0,0,1-.5-.847,1,1,0,0,1,2,0Z"/></g><text x="0" y="40" fill="#000000" font-size="5px" font-weight="bold" font-family="'Helvetica Neue', Helvetica, Arial-Unicode, Arial, Sans-serif">Created by The Icon Z</text><text x="0" y="45" fill="#000000" font-size="5px" font-weight="bold" font-family="'Helvetica Neue', Helvetica, Arial-Unicode, Arial, Sans-serif">from the Noun Project</text></svg>