<svg xmlns="http://www.w3.org/2000/svg" viewBox="0 0 73 78.75" x="0px" y="0px"><g data-name="Layer 2"><g data-name="Layer 1"><path d="M73,61.5V1.5A1.5,1.5,0,0,0,71.5,0H1.5A1.5,1.5,0,0,0,0,1.5v60A1.5,1.5,0,0,0,1.5,63h70A1.5,1.5,0,0,0,73,61.5ZM70,3V42.88L59.31,32.19a11.49,11.49,0,0,0-16.22,0L29.83,45.46l-5-5a11.4,11.4,0,0,0-16-.21L3,45.7V3ZM3,60V49.83l7.86-7.45a8.44,8.44,0,0,1,11.81.16l6.1,6.1a1.49,1.49,0,0,0,2.12,0L45.22,34.31a8.47,8.47,0,0,1,12,0L69.86,47a1.1,1.1,0,0,0,.14.09V60Z"/><path d="M29.5,30A8.5,8.5,0,1,0,21,21.5,8.51,8.51,0,0,0,29.5,30Zm0-14A5.5,5.5,0,1,1,24,21.5,5.51,5.51,0,0,1,29.5,16Z"/></g></g><text x="0" y="78" fill="#000000" font-size="5px" font-weight="bold" font-family="'Helvetica Neue', Helvetica, Arial-Unicode, Arial, Sans-serif">Created by Kayla Valencia</text><text x="0" y="83" fill="#000000" font-size="5px" font-weight="bold" font-family="'Helvetica Neue', Helvetica, Arial-Unicode, Arial, Sans-serif">from the Noun Project</text></svg>