<svg xmlns="http://www.w3.org/2000/svg" xmlns:xlink="http://www.w3.org/1999/xlink" version="1.1" x="0px" y="0px" viewBox="0 0 32 40" style="enable-background:new 0 0 32 32;" xml:space="preserve"><path d="M31.7,28.9l-6.4-6.4c2.2-2.9,3.2-6.6,2.6-10.6C27,5.8,22,1,15.9,0.2C6.8-0.9-0.9,6.8,0.2,15.9C1,22,5.8,27,11.9,27.9  c4,0.6,7.7-0.5,10.6-2.6l6.4,6.4c0.2,0.2,0.5,0.2,0.7,0l2.1-2.1C31.9,29.4,31.9,29.1,31.7,28.9z M14.1,24.1c-5.5,0-10-4.5-10-10  c0-5.5,4.5-10,10-10s10,4.5,10,10C24.1,19.6,19.6,24.1,14.1,24.1z"/><text x="0" y="47" fill="#000000" font-size="5px" font-weight="bold" font-family="'Helvetica Neue', Helvetica, Arial-Unicode, Arial, Sans-serif">Created by Noe Araujo</text><text x="0" y="52" fill="#000000" font-size="5px" font-weight="bold" font-family="'Helvetica Neue', Helvetica, Arial-Unicode, Arial, Sans-serif">from the Noun Project</text></svg>