<svg xmlns="http://www.w3.org/2000/svg" xmlns:xlink="http://www.w3.org/1999/xlink" version="1.1" x="0px" y="0px" viewBox="0 0 100 125" style="enable-background:new 0 0 100 100;" xml:space="preserve"><path d="M81.6,33c2,2,2,5.1,0,7.1l-7.1,7.1l-7.1-7.1c-2-2-2-5.1,0-7.1c2-2,5.1-2,7.1,0C76.5,31.1,79.7,31.1,81.6,33z M74.5,57.3  c0.6,0,1.3,0,1.9-0.1v11.6v0v0c0,0.1,0,0.3,0,0.4c0,0.1,0,0.1,0,0.2c0,0.1,0,0.1-0.1,0.2c0,0.1-0.1,0.1-0.1,0.2  c0,0.1-0.1,0.1-0.1,0.2c-0.1,0.1-0.1,0.1-0.2,0.2c0,0,0,0.1-0.1,0.1l0,0c0,0,0,0,0,0L56,90.4c0,0,0,0,0,0c-0.1,0.1-0.2,0.2-0.3,0.3  c0,0-0.1,0-0.1,0.1c-0.1,0-0.1,0.1-0.2,0.1c-0.1,0-0.1,0-0.2,0.1c-0.1,0-0.1,0-0.2,0.1c-0.1,0-0.3,0-0.4,0H22.4  c-6.6,0-11.9-5.4-11.9-12.1V21.1C10.5,14.4,15.8,9,22.4,9h42.2c6,0,11,4.6,11.8,10.4c-0.6-0.1-1.2-0.1-1.8-0.1  c-0.8,0-1.5,0.1-2.2,0.1c-0.7-3.7-3.9-6.5-7.8-6.5H22.4c-4.4,0-7.9,3.6-7.9,8.1v57.9c0,4.4,3.6,8.1,7.9,8.1h30.2V73.9  c0-3.9,3.1-7,7-7h12.9v-9.6C73.1,57.3,73.8,57.3,74.5,57.3z M69.7,70.9H59.6c-1.6,0-3,1.4-3,3v10.2L69.7,70.9z M91,38.3  c0,9.1-7.4,16.5-16.5,16.5S58,47.4,58,38.3s7.4-16.5,16.5-16.5S91,29.2,91,38.3z M88,38.3c0-7.4-6.1-13.5-13.5-13.5S61,30.9,61,38.3  s6.1,13.5,13.5,13.5S88,45.8,88,38.3z M48.6,59.9c0.3,0.3,0.7,0.4,1.1,0.4s0.8-0.1,1.1-0.4l9.9-9.9l-9.9-9.9c-0.6-0.6-1.5-0.6-2.1,0  c-0.6,0.6-0.6,1.5,0,2.1l7.8,7.8l-7.8,7.8C48,58.3,48,59.3,48.6,59.9z M38.3,40.1c-0.6-0.6-1.5-0.6-2.1,0L26.3,50l9.9,9.9  c0.3,0.3,0.7,0.4,1.1,0.4s0.8-0.1,1.1-0.4c0.6-0.6,0.6-1.5,0-2.1L30.6,50l7.8-7.8C38.9,41.7,38.9,40.7,38.3,40.1z M45,36.4l-6,26.5  c-0.2,0.8,0.3,1.6,1.1,1.8c0.1,0,0.2,0,0.3,0c0.7,0,1.3-0.5,1.5-1.2l6-26.5c0.2-0.8-0.3-1.6-1.1-1.8C46,35.1,45.2,35.6,45,36.4z"/><text x="0" y="115" fill="#000000" font-size="5px" font-weight="bold" font-family="'Helvetica Neue', Helvetica, Arial-Unicode, Arial, Sans-serif">Created by Pravin Unagar</text><text x="0" y="120" fill="#000000" font-size="5px" font-weight="bold" font-family="'Helvetica Neue', Helvetica, Arial-Unicode, Arial, Sans-serif">from the Noun Project</text></svg>