<svg xmlns="http://www.w3.org/2000/svg" viewBox="0 0 60 75" x="0px" y="0px"><title>020 - Love Coding</title><g><path d="M54.536,10.3A12.91,12.91,0,0,0,45.105,6,12.657,12.657,0,0,0,35.729,9.99l-5.017,5.087a1.03,1.03,0,0,1-1.424,0L24.28,10a12.714,12.714,0,0,0-9.239-4H14.9A12.91,12.91,0,0,0,5.464,10.3C.657,15.536.92,24.09,6.048,29.363L30.007,54,53.952,29.363C59.08,24.09,59.343,15.536,54.536,10.3ZM34.293,20.707a1,1,0,0,1,1.414-1.414l3,3a1,1,0,0,1,0,1.414l-3,3a1,1,0,0,1-1.414-1.414L36.586,23ZM28.03,26.758l2-8a1,1,0,0,1,1.94.484l-2,8A1,1,0,0,1,29,28a1.017,1.017,0,0,1-.243-.03A1,1,0,0,1,28.03,26.758Zm-6.737-4.465,3-3a1,1,0,0,1,1.414,1.414L23.414,23l2.293,2.293a1,1,0,1,1-1.414,1.414l-3-3A1,1,0,0,1,21.293,22.293ZM8.579,27.705a1,1,0,0,1-1.412-.072,12.274,12.274,0,0,1-.8-.981,1,1,0,1,1,1.617-1.177,10.217,10.217,0,0,0,.663.818A1,1,0,0,1,8.579,27.705ZM15.038,10a8.936,8.936,0,0,0-6.626,3A9.64,9.64,0,0,0,6.288,21.77a1,1,0,0,1-.742,1.2A1.02,1.02,0,0,1,5.314,23a1,1,0,0,1-.971-.77,11.63,11.63,0,0,1,2.6-10.584A10.917,10.917,0,0,1,15.038,8a1,1,0,0,1,0,2ZM21,40H20a1,1,0,0,1,0-2h1a1,1,0,0,1,0,2Zm0-4H20a1,1,0,0,1,0-2h1a1,1,0,0,1,0,2Zm0-4H20a1,1,0,0,1,0-2h1a1,1,0,0,1,0,2Zm7,8H25a1,1,0,0,1,0-2h3a1,1,0,0,1,0,2Zm0-4H25a1,1,0,0,1,0-2h3a1,1,0,0,1,0,2Zm6,4H32a1,1,0,0,1,0-2h2a1,1,0,0,1,0,2Zm1-4H32a1,1,0,0,1,0-2h3a1,1,0,0,1,0,2Zm5,4H38a1,1,0,0,1,0-2h2a1,1,0,0,1,0,2Zm0-8H25a1,1,0,0,1,0-2H40a1,1,0,0,1,0,2Z"/></g><text x="0" y="75" fill="#000000" font-size="5px" font-weight="bold" font-family="'Helvetica Neue', Helvetica, Arial-Unicode, Arial, Sans-serif">Created by Juicy Fish</text><text x="0" y="80" fill="#000000" font-size="5px" font-weight="bold" font-family="'Helvetica Neue', Helvetica, Arial-Unicode, Arial, Sans-serif">from the Noun Project</text></svg>