<svg width="45" height="21" viewBox="0 0 45 21" fill="none" xmlns="http://www.w3.org/2000/svg">
<path d="M22.4737 20.1011C22.1394 20.1011 21.8051 20.0048 21.5169 19.8128C20.197 18.9284 13.5285 14.2731 11.7736 9.39359C10.8742 6.89008 11.1034 4.50875 12.4183 2.68653C13.6379 1.01452 15.6719 0.0195704 17.8629 0.0195704C19.5626 0.0195704 21.162 0.591364 22.4851 1.65191C23.8103 0.590836 25.4336 0 27.1029 0C29.2885 0 31.323 0.998125 32.5426 2.6696C33.8635 4.49447 34.0938 6.88056 33.1922 9.39465C31.3853 14.4329 24.2324 19.2802 23.4229 19.8165C23.1358 20.0075 22.8053 20.1011 22.4737 20.1011ZM17.8624 3.32179C16.7631 3.32179 15.7591 3.79838 15.1772 4.59603C14.5135 5.51481 14.4365 6.83295 14.9637 8.29972C15.998 11.1761 19.8156 14.4974 22.4764 16.4244C25.044 14.5709 28.9596 11.2021 29.9999 8.30396C30.5298 6.82713 30.4523 5.50476 29.7842 4.58122C29.2013 3.78198 28.1968 3.30275 27.1023 3.30275C25.9613 3.30275 24.8381 3.84598 24.0205 4.79438L23.7745 5.07949C23.4522 5.45028 22.9803 5.6645 22.4829 5.6645C22.4802 5.6645 22.4786 5.6645 22.4758 5.6645C21.9758 5.66292 21.5022 5.44446 21.182 5.06944L20.9425 4.78804C20.1152 3.83223 19.0468 3.32179 17.8624 3.32179Z" fill="black"/>
<path d="M8.07031 18.0868C7.63795 18.0868 7.20451 17.9245 6.87455 17.6023L0.495345 11.3734C-0.165115 10.7287 -0.165115 9.68345 0.495345 9.03919L6.87455 2.81136C7.53501 2.16604 8.60616 2.16604 9.26608 2.81136C9.92708 3.45562 9.92708 4.50135 9.26608 5.14561L4.08263 10.2071L9.26608 15.2681C9.92654 15.9118 9.92654 16.9581 9.26608 17.6018C8.93612 17.9245 8.50322 18.0868 8.07031 18.0868Z" fill="black"/>
<path d="M36.8965 18.0869C36.4642 18.0869 36.0307 17.9245 35.7007 17.6023C35.0408 16.9575 35.0408 15.9123 35.7007 15.2686L40.8847 10.2076L35.7013 5.14614C35.0414 4.50188 35.0414 3.45615 35.7013 2.81136C36.3623 2.1671 37.4324 2.16657 38.0928 2.81189L44.4715 9.03973C45.1325 9.68398 45.1325 10.7292 44.4715 11.374L38.0923 17.6023C37.7623 17.9245 37.3289 18.0869 36.8965 18.0869Z" fill="black"/>
</svg>
