<svg xmlns="http://www.w3.org/2000/svg" xmlns:xlink="http://www.w3.org/1999/xlink" xml:space="preserve" version="1.1" style="shape-rendering:geometricPrecision;text-rendering:geometricPrecision;image-rendering:optimizeQuality;" viewBox="0 0 846.66 1058.325" x="0px" y="0px" fill-rule="evenodd" clip-rule="evenodd"><defs><style type="text/css">
   
    .fil0 {fill:black}
   
  </style></defs><g><path class="fil0" d="M188.95 737.31l468.76 0c34.99,0 65.5,-23.1 75.87,-55.61l-425.15 0c-31.58,0 -31.58,-47.97 0,-47.97l428.88 0 0 -444.78c0,-43.73 -35.87,-79.6 -79.6,-79.6l-468.76 0c-35.02,0 -65.51,23.13 -75.87,55.61l425.15 0c31.58,0 31.58,47.97 0,47.97l-428.88 0 0 444.78c0,43.73 35.87,79.6 79.6,79.6zm368.95 -187.98c-22.57,21.94 -55.92,-12.3 -33.35,-34.29l93.92 -91.71 -93.92 -91.71c-22.58,-22 10.82,-56.24 33.35,-34.29l111.95 109.32c9.21,9.47 9,24.62 -0.47,33.83l-111.48 108.85zm-141.28 -8.41c-8.14,30.47 -54.43,18.1 -46.28,-12.36l59.7 -222.82c8.15,-30.47 54.43,-18.08 46.28,12.37l-59.7 222.81zm-94.51 -25.88c22.59,21.96 -10.81,56.25 -33.35,34.29l-111.48 -108.85c-9.47,-9.21 -9.68,-24.36 -0.47,-33.83l111.95 -109.32c22.53,-21.95 55.93,12.29 33.35,34.29l-93.92 91.71 93.92 91.71zm335.6 270.24l-468.76 0c-70.22,0 -127.57,-57.35 -127.57,-127.57l0 -468.76c0,-70.22 57.35,-127.57 127.57,-127.57l468.76 0c70.22,0 127.57,57.35 127.57,127.57l0 468.76c0,70.22 -57.35,127.57 -127.57,127.57z"/></g><text x="0" y="861.66" fill="#000000" font-size="5px" font-weight="bold" font-family="'Helvetica Neue', Helvetica, Arial-Unicode, Arial, Sans-serif">Created by Emza</text><text x="0" y="866.66" fill="#000000" font-size="5px" font-weight="bold" font-family="'Helvetica Neue', Helvetica, Arial-Unicode, Arial, Sans-serif">from the Noun Project</text></svg>