<svg xmlns="http://www.w3.org/2000/svg" xmlns:xlink="http://www.w3.org/1999/xlink" version="1.1" x="0px" y="0px" viewBox="0 0 100 125" style="enable-background:new 0 0 100 100;" xml:space="preserve"><path d="M73.5,21.9c-8.3,0-15,6.7-15,15c0,8.3,6.7,15,15,15s15-6.7,15-15C88.5,28.6,81.8,21.9,73.5,21.9z M80.6,38.6l-7.1,7.1  l-7.1-7.1c-2-2-2-5.1,0-7.1c2-2,5.1-2,7.1,0c2-2,5.1-2,7.1,0C82.5,33.5,82.5,36.7,80.6,38.6z M72.5,68.9 M56,36.9  c0-9.6,7.8-17.4,17.4-17.5c-0.8-4.8-4.8-8.4-9.8-8.4H21.4c-5.5,0-9.9,4.5-9.9,10.1v57.9c0,5.6,4.4,10.1,9.9,10.1h32.2l19.8-20.1  V54.4C63.8,54.4,56,46.6,56,36.9z M37.4,57.8c0.6,0.6,0.6,1.5,0,2.1c-0.3,0.3-0.7,0.4-1.1,0.4s-0.8-0.1-1.1-0.4L25.4,50l9.9-9.9  c0.6-0.6,1.5-0.6,2.1,0c0.6,0.6,0.6,1.5,0,2.1L29.6,50L37.4,57.8z M46.9,37.1l-6,26.5c-0.2,0.7-0.8,1.2-1.5,1.2c-0.1,0-0.2,0-0.3,0  c-0.8-0.2-1.3-1-1.1-1.8l6-26.5c0.2-0.8,1-1.3,1.8-1.1C46.6,35.5,47.1,36.3,46.9,37.1z M49.7,59.9c-0.3,0.3-0.7,0.4-1.1,0.4  s-0.8-0.1-1.1-0.4c-0.6-0.6-0.6-1.5,0-2.1l7.8-7.8l-7.8-7.8c-0.6-0.6-0.6-1.5,0-2.1c0.6-0.6,1.5-0.6,2.1,0l9.9,9.9L49.7,59.9z   M55.6,84.1l0-10.3c0-1.7,1.3-3,3-3h10.1L55.6,84.1z"/><text x="0" y="115" fill="#000000" font-size="5px" font-weight="bold" font-family="'Helvetica Neue', Helvetica, Arial-Unicode, Arial, Sans-serif">Created by Pravin Unagar</text><text x="0" y="120" fill="#000000" font-size="5px" font-weight="bold" font-family="'Helvetica Neue', Helvetica, Arial-Unicode, Arial, Sans-serif">from the Noun Project</text></svg>